<svg width="42" height="42" viewBox="0 0 42 42" fill="none" xmlns="http://www.w3.org/2000/svg">
<g filter="url(#filter0_d_2555_38)">
<g filter="url(#filter1_i_2555_38)">
<rect x="4" width="34" height="34" rx="10" fill="white"/>
</g>
<path d="M30 18.5C30.8284 18.5 31.5 17.8284 31.5 17C31.5 16.1716 30.8284 15.5 30 15.5L30 18.5ZM9.51077 15.9393C8.92498 16.5251 8.92498 17.4749 9.51077 18.0607L19.0567 27.6066C19.6425 28.1924 20.5922 28.1924 21.178 27.6066C21.7638 27.0208 21.7638 26.0711 21.178 25.4853L12.6927 17L21.178 8.51472C21.7638 7.92893 21.7638 6.97918 21.178 6.3934C20.5922 5.80761 19.6425 5.80761 19.0567 6.3934L9.51077 15.9393ZM30 15.5L10.5714 15.5L10.5714 18.5L30 18.5L30 15.5Z" fill="black"/>
</g>
<defs>
<filter id="filter0_d_2555_38" x="0" y="0" width="42" height="42" filterUnits="userSpaceOnUse" color-interpolation-filters="sRGB">
<feFlood flood-opacity="0" result="BackgroundImageFix"/>
<feColorMatrix in="SourceAlpha" type="matrix" values="0 0 0 0 0 0 0 0 0 0 0 0 0 0 0 0 0 0 127 0" result="hardAlpha"/>
<feOffset dy="4"/>
<feGaussianBlur stdDeviation="2"/>
<feComposite in2="hardAlpha" operator="out"/>
<feColorMatrix type="matrix" values="0 0 0 0 0 0 0 0 0 0 0 0 0 0 0 0 0 0 0.25 0"/>
<feBlend mode="normal" in2="BackgroundImageFix" result="effect1_dropShadow_2555_38"/>
<feBlend mode="normal" in="SourceGraphic" in2="effect1_dropShadow_2555_38" result="shape"/>
</filter>
<filter id="filter1_i_2555_38" x="4" y="0" width="34" height="38" filterUnits="userSpaceOnUse" color-interpolation-filters="sRGB">
<feFlood flood-opacity="0" result="BackgroundImageFix"/>
<feBlend mode="normal" in="SourceGraphic" in2="BackgroundImageFix" result="shape"/>
<feColorMatrix in="SourceAlpha" type="matrix" values="0 0 0 0 0 0 0 0 0 0 0 0 0 0 0 0 0 0 127 0" result="hardAlpha"/>
<feOffset dy="4"/>
<feGaussianBlur stdDeviation="2"/>
<feComposite in2="hardAlpha" operator="arithmetic" k2="-1" k3="1"/>
<feColorMatrix type="matrix" values="0 0 0 0 0 0 0 0 0 0 0 0 0 0 0 0 0 0 0.25 0"/>
<feBlend mode="normal" in2="shape" result="effect1_innerShadow_2555_38"/>
</filter>
</defs>
</svg>
